<?xml version="1.0" encoding="utf-8"?>
<svg viewBox="0 0 500 500" xmlns="http://www.w3.org/2000/svg">
  <defs>
    <linearGradient id="linear-gradient" x1="-178.07" y1="472.22" x2="-172.07" y2="472.22" gradientTransform="matrix(15.82, 15.88, 15.88, -15.82, -4647.6, 10329.65)" gradientUnits="userSpaceOnUse">
      <stop offset="0" stop-color="#387eb8"/>
      <stop offset="1" stop-color="#366994"/>
    </linearGradient>
    <linearGradient id="linear-gradient-2" x1="-175.96" y1="471.86" x2="-169.96" y2="471.86" gradientTransform="matrix(16.99, 16.28, 16.28, -16.99, -4601.96, 10974.93)" gradientUnits="userSpaceOnUse">
      <stop offset="0" stop-color="#ffe052"/>
      <stop offset="1" stop-color="#ffc331"/>
    </linearGradient>
    <linearGradient x1="0%" y1="50%" x2="100%" y2="50%" id="linearGradient-1">
      <stop stop-color="#4F4F4F" offset="0"/>
      <stop stop-color="#000000" offset="1"/>
    </linearGradient>
    <linearGradient x1="0%" y1="50%" x2="100%" y2="50%" id="linearGradient-2">
      <stop stop-color="#C40000" offset="0"/>
      <stop stop-color="#FF0000" offset="1"/>
    </linearGradient>
  </defs>
  <desc>Created with Fabric.js 3.6.6</desc>
  <title>java</title>
  <title>python</title>
  <g id="python" transform="matrix(1.204091, 0, 0, 1.296109, -16.611801, 89.661209)" style="">
    <path class="cls-1" d="M109.12,13.53c-48.72,0-45.66,21.12-45.66,21.12l.06,21.9H110v6.6H45s-31.2-3.54-31.2,45.66,27.24,47.46,27.24,47.46H57.34v-22.8s-.9-27.24,26.76-27.24h46.14s25.92.42,25.92-25V39.09S160.06,13.53,109.12,13.53ZM83.5,28.23a8.34,8.34,0,1,1-8.34,8.34A8.32,8.32,0,0,1,83.5,28.23Z" style="fill: url(#linear-gradient);"/>
    <path class="cls-2" d="M110.56,204.51c48.72,0,45.72-21.12,45.72-21.12l-.06-21.9h-46.5v-6.6h64.92s31.2,3.54,31.2-45.66S178.6,61.77,178.6,61.77H162.34v22.8s.9,27.24-26.76,27.24H89.44s-25.92-.42-25.92,25V179S59.62,204.51,110.56,204.51Zm25.62-14.7a8.34,8.34,0,1,1,8.34-8.34A8.32,8.32,0,0,1,136.18,189.81Z" style="fill: url(#linear-gradient-2);"/>
  </g>
  <title>php</title>
  <g transform="matrix(0.060722, 0, 0, 0.061292, 247.39502, 204.795807)" style="">
    <path d="M920,430H570V80c0-38.7-31.3-70-70-70c-38.6,0-70,31.3-70,70v350H80c-38.6,0-70,31.3-70,70c0,38.7,31.4,70,70,70h350v350c0,38.6,31.4,70,70,70c38.7,0,70-31.4,70-70V570h350c38.7,0,70-31.3,70-70C990,461.3,958.7,430,920,430z"/>
  </g>
  <g transform="matrix(0.667554, 0, 0, 0.711969, 329.487091, 79.153419)" style="">
    <path d="M0,288 L0,256 C0,250.606222 116.376889,241.571556 192.199111,224 L192.199111,224 C228.828444,232.490667 256,242.968889 256,256 L256,256 L256,288 C256,301.024 228.828444,311.509333 192.199111,320 L192.199111,320 C116.376889,302.424889 0,293.390222 0,288" fill="url(#linearGradient-1)" transform="translate(128.000000, 272.000000) scale(1, -1) translate(-128.000000, -272.000000) "/>
    <path d="M0,160 L0,128 C0,122.606222 116.376889,113.571556 192.199111,96 L192.199111,96 C228.828444,104.490667 256,114.968889 256,128 L256,128 L256,160 C256,173.024 228.828444,183.509333 192.199111,192 L192.199111,192 C116.376889,174.424889 0,165.390222 0,160" fill="url(#linearGradient-1)" transform="translate(128.000000, 144.000000) scale(1, -1) translate(-128.000000, -144.000000) "/>
    <path d="M0,224 L0,128 C0,136 256,152 256,192 L256,192 L256,288 C256,248 0,232 0,224" fill="url(#linearGradient-2)" transform="translate(128.000000, 208.000000) scale(1, -1) translate(-128.000000, -208.000000) "/>
    <path d="M0,96 L0,0 C0,8 256,24 256,64 L256,64 L256,160 C256,120 0,104 0,96" fill="url(#linearGradient-2)" transform="translate(128.000000, 80.000000) scale(1, -1) translate(-128.000000, -80.000000) "/>
    <path d="M0,352 L0,256 C0,264 256,280 256,320 L256,320 L256,416 C256,376 0,360 0,352" fill="url(#linearGradient-2)" transform="translate(128.000000, 336.000000) scale(1, -1) translate(-128.000000, -336.000000) "/>
  </g>
</svg>